HIERARCHY
ROOT hip
{
	OFFSET 0.000000 0.000000 0.000000 
	CHANNELS 6 Xposition Yposition Zposition Xrotation Zrotation Yrotation
	JOINT abdomen
	{
		OFFSET 0.000000 3.402643 0.000000 
		CHANNELS 3 Xrotation Zrotation Yrotation
		JOINT chest
		{
			OFFSET 0.000000 8.438565 -0.680529 
			CHANNELS 3 Xrotation Zrotation Yrotation
			JOINT neck
			{
				OFFSET 0.000000 10.207942 -0.272212 
				CHANNELS 3 Xrotation Zrotation Yrotation
				JOINT head
				{
					OFFSET 0.000000 3.130431 0.000000 
					CHANNELS 3 Xrotation Zrotation Yrotation
					End Site
					{
						OFFSET 0.000000 3.130435 0.000000 
					}
				}
			}
			JOINT lCollar
			{
				OFFSET 3.470700 6.669187 -0.816635 
				CHANNELS 3 Yrotation Zrotation Xrotation
				JOINT lShldr
				{
					OFFSET 3.198488 0.000000 0.000000 
					CHANNELS 3 Zrotation Yrotation Xrotation
					JOINT lForeArm
					{
						OFFSET 10.139888 0.000000 0.000000 
						CHANNELS 3 Yrotation Zrotation Xrotation
						JOINT lHand
						{
							OFFSET 8.370511 0.000000 0.000000 
							CHANNELS 3 Zrotation Yrotation Xrotation
							End Site
							{
								OFFSET 4.083176 0.000000 0.000000 
							}
						}
					}
				}
			}
			JOINT rCollar
			{
				OFFSET -3.470700 6.669187 -0.816635 
				CHANNELS 3 Yrotation Zrotation Xrotation
				JOINT rShldr
				{
					OFFSET -3.198488 0.000000 0.000000 
					CHANNELS 3 Zrotation Yrotation Xrotation
					JOINT rForeArm
					{
						OFFSET -10.139888 0.000000 0.000000 
						CHANNELS 3 Yrotation Zrotation Xrotation
						JOINT rHand
						{
							OFFSET -8.370511 0.000000 0.000000 
							CHANNELS 3 Zrotation Yrotation Xrotation
							End Site
							{
								OFFSET -4.083176 0.000000 0.000000 
							}
						}
					}
				}
			}
		}
	}
	JOINT lThigh
	{
		OFFSET 5.308129 -1.633274 1.361059 
		CHANNELS 3 Xrotation Zrotation Yrotation
		JOINT lShin
		{
			OFFSET -2.041588 -20.007561 0.000000 
			CHANNELS 3 Xrotation Zrotation Yrotation
			JOINT lFoot
			{
				OFFSET 0.000000 -19.190928 -1.224953 
				CHANNELS 3 Xrotation Yrotation Zrotation
				End Site
				{
					OFFSET 0.000000 -2.449906 4.627600 
				}
			}
		}
	}
	JOINT rThigh
	{
		OFFSET -5.308129 -1.633274 1.361059 
		CHANNELS 3 Xrotation Zrotation Yrotation
		JOINT rShin
		{
			OFFSET 2.041588 -20.007561 0.000000 
			CHANNELS 3 Xrotation Zrotation Yrotation
			JOINT rFoot
			{
				OFFSET 0.000000 -19.190928 -1.224953 
				CHANNELS 3 Xrotation Yrotation Zrotation
				End Site
				{
					OFFSET 0.000000 -2.449906 4.627600 
				}
			}
		}
	}
}
MOTION
Frames: 11
Frame Time: 0.011111
37.852951 47.601387 25.593048 15.807558 9.430024 -112.676620 46.528999 5.853034 3.187713 -23.610512 6.516937 -0.593659 -0.087410 -14.914930 -15.787573 15.929038 29.511604 -27.391562 9.969777 -14.785672 3.853935 -58.763046 -39.719044 47.161732 -76.850983 7.723794 20.634766 8.524705 12.647240 -48.626358 -4.049711 8.641859 2.072876 16.598625 58.553047 -60.548500 47.273197 -7.031971 7.078686 -8.534408 -12.637552 79.564316 -39.381821 22.790752 9.331947 82.100128 0.078520 -9.508614 -19.204758 -8.260157 -5.782071 -19.242668 -7.408395 -13.873219 46.855400 4.072110 6.848340 -20.094742 -0.633519 2.499746 
37.772129 47.571945 25.905998 14.815814 8.609063 -113.687202 46.680099 4.712502 1.835610 -23.217566 7.096254 -0.732776 -0.843754 -15.102384 -15.359171 16.669605 28.954037 -26.646772 9.969777 -14.785672 3.853935 -59.683880 -41.392933 49.389347 -77.440788 7.523998 20.960777 8.524705 12.647240 -48.089249 -4.049711 8.641859 2.072876 17.053938 60.107777 -59.141357 47.770802 -7.164056 7.273836 -8.534408 -12.637552 80.452980 -38.825642 21.629045 8.788735 82.177841 0.078338 -9.523110 -20.459745 -7.986780 -5.778193 -19.256886 -9.169239 -13.592302 46.619225 4.101457 6.811241 -19.039059 0.400105 2.932704 
37.769932 47.326347 26.477390 15.360130 9.063466 -115.494072 46.949921 5.379881 2.999882 -23.374529 6.323135 -0.573587 -1.377632 -15.294677 -14.992566 17.344597 28.733141 -25.955307 9.969777 -14.785672 3.853935 -60.558590 -42.993382 51.801979 -77.890053 7.363331 21.211033 8.524705 12.647240 -47.542370 -4.049711 8.641859 2.072876 17.648245 61.233097 -56.649567 48.247410 -7.282554 7.464156 -8.534408 -12.637552 82.161972 -40.336903 22.477041 7.380328 82.401772 0.107493 -9.522014 -21.013529 -7.388334 -5.568502 -20.103563 -8.845036 -12.941425 46.432301 4.111182 6.799298 -17.675222 1.182607 3.246438 
37.732971 47.239883 26.903433 15.721284 9.303101 -117.126472 47.114910 5.389955 3.563790 -23.620077 6.075641 -0.465661 -1.591451 -15.120814 -14.654666 17.805080 28.328777 -25.300819 9.969777 -14.785672 3.853935 -61.370583 -44.403717 54.246353 -78.193459 7.253950 21.385359 8.524705 12.647240 -47.229866 -4.049711 8.641859 2.072876 18.170534 62.396935 -55.330601 48.268860 -7.291533 7.471959 -8.534408 -12.637552 82.474464 -41.204487 23.315811 6.231308 82.284409 0.097617 -9.532612 -21.402891 -6.472832 -5.189382 -20.388762 -8.426819 -12.109436 45.930298 4.159959 6.737532 -16.700012 1.650733 3.429752 
37.582916 47.324780 27.217321 14.915714 7.903028 -118.234703 47.762920 3.864883 2.264152 -23.590796 6.431520 -0.556062 -1.893099 -14.673502 -14.325135 18.184168 27.724863 -24.721233 9.969777 -14.785672 3.853935 -62.045200 -46.018349 57.010685 -78.588493 7.100224 21.618385 8.524705 12.647240 -46.888069 -4.049711 8.641859 2.072876 18.606018 63.853260 -55.517879 48.091969 -7.245332 7.406585 -8.534408 -12.637552 81.400246 -39.406349 21.947792 5.942255 81.546028 0.000668 -9.491160 -22.170025 -5.809043 -4.952892 -19.477596 -10.074302 -11.802794 45.201775 4.218509 6.659464 -15.830942 2.381039 3.650853 
37.585735 47.274654 27.550011 16.348196 8.443966 -119.719559 48.267086 4.567085 3.759450 -23.620068 5.907892 -0.346105 -2.563733 -14.408014 -13.976108 19.024355 27.281593 -24.137672 9.969777 -14.785672 3.853935 -62.791576 -47.982559 60.044350 -78.913368 6.967132 21.804005 8.524705 12.647240 -46.516979 -4.049711 8.641859 2.072876 19.057541 65.231316 -55.353542 48.206589 -7.276970 7.453271 -8.534408 -12.637552 81.156113 -40.491734 24.009468 3.965807 81.050095 -0.077015 -9.485767 -22.145155 -6.453381 -5.215980 -18.991932 -8.055302 -10.592801 44.265308 4.306466 6.555048 -14.967089 1.999253 3.557943 
37.547203 47.199162 27.978239 16.953079 8.882466 -121.462112 48.514874 4.813892 4.563042 -23.639717 5.564033 -0.225781 -3.288520 -14.300932 -13.512799 19.979132 26.572922 -23.343344 9.969777 -14.785672 3.853935 -63.983223 -49.738434 62.792587 -79.207985 6.843249 21.985840 8.524705 12.647240 -46.321667 -4.049711 8.641859 2.072876 19.112791 66.891624 -55.087276 48.123096 -7.252690 7.415882 -8.534408 -12.637552 81.048683 -41.258839 24.960379 2.316232 80.233963 -0.183719 -9.434741 -21.857069 -6.927981 -5.418839 -19.086134 -7.057560 -9.125070 43.298725 4.384695 6.462633 -14.002414 1.872146 3.537621 
37.500843 47.073227 28.468813 16.784370 9.150631 -123.762123 48.592266 4.297024 4.546450 -23.875294 5.754683 -0.174768 -3.860088 -14.443260 -12.886386 20.763142 25.689568 -22.230377 9.969777 -14.785672 3.853935 -65.513641 -51.117687 64.998657 -79.499832 6.714885 22.167686 8.524705 12.647240 -46.331432 -4.049711 8.641859 2.072876 18.968002 69.059311 -54.773342 47.697983 -7.144000 7.246813 -8.534408 -12.637552 80.413918 -41.530170 25.222771 1.484383 79.329399 -0.301725 -9.403409 -22.063629 -7.403327 -5.619457 -19.769814 -6.853181 -7.467890 42.341202 4.479124 6.337236 -12.946740 1.987972 3.554948 
37.380547 47.037201 28.892971 16.742838 9.010076 -124.173279 48.775085 4.855870 3.529265 -24.121014 6.147686 -0.544013 -4.289609 -14.768104 -12.270231 21.483635 25.134287 -21.094269 9.969777 -14.785672 3.853935 -66.972031 -52.505157 67.316635 -79.658615 6.641698 22.256094 8.524705 12.647240 -46.253307 -4.049711 8.641859 2.072876 19.066906 71.022453 -53.793087 47.428211 -7.072132 7.144501 -8.534408 -12.637552 80.081894 -41.581005 24.306065 -0.728386 78.084648 -0.466914 -9.346539 -22.521532 -8.720800 -6.251880 -19.447130 -7.214163 -7.116344 41.334709 4.557095 6.210120 -12.362549 1.907538 3.528735 
37.258377 47.057568 29.306166 17.024967 8.838411 -124.837524 49.267845 5.181956 3.344394 -24.337038 6.165060 -0.687279 -4.763425 -14.745299 -11.831249 21.948980 24.482065 -20.362946 9.969777 -14.785672 3.853935 -68.440086 -54.310555 70.564423 -79.688385 6.630920 22.278818 8.524705 12.647240 -46.331432 -4.049711 8.641859 2.072876 18.890776 72.750626 -54.270905 47.147995 -6.993860 7.034487 -8.534408 -12.637552 79.036972 -41.235775 23.806318 -2.816491 76.839447 -0.633333 -9.294991 -22.540977 -10.798285 -7.221339 -18.816996 -7.167592 -6.291092 40.288498 4.618753 6.101988 -11.714225 1.742884 3.513957 
37.137142 47.032818 29.826500 17.047121 9.264037 -126.215431 49.227089 5.459657 3.666841 -24.365883 5.795728 -0.649682 -5.423810 -14.616736 -11.362205 22.449751 23.775906 -19.654055 9.969777 -14.785672 3.853935 -70.242249 -56.327282 74.045807 -79.603516 6.668818 22.229326 8.524705 12.647240 -46.595104 -4.049711 8.641859 2.072876 18.744680 74.596062 -55.148380 46.941727 -6.941372 6.950267 -8.534408 -12.637552 77.777199 -41.834427 23.514891 -4.690219 75.944542 -0.749955 -9.245657 -21.938164 -12.770762 -8.042934 -19.085045 -6.940590 -5.117467 39.101124 4.716707 5.963568 -10.660134 1.606326 3.471618 
